<?xml version="1.0" encoding="UTF-8"?> <svg xmlns="http://www.w3.org/2000/svg" width="1440" height="577" viewBox="0 0 1440 577" fill="none"> <g filter="url(#filter0_d)"> <path d="M50 548.056L50 29.8M75 533.656L75 44.2M100 519.544L100 58.888M150 490.744L150 87.4M175 476.344L175 101.8M200 461.8L200 116.488M225 447.4L225 130.6M125 504.712L125 73M25 562.456L25 15.4M-7.80821e-06 289H250M-7.80821e-06 231.4L250 260.2M-7.80821e-06 173.8L250 231.4M-7.80821e-06 116.2L250 202.6M-7.80821e-06 58.6L250 173.8M-7.80821e-06 346.6L250 317.8M-7.80821e-06 404.2L250 346.6M-7.80821e-06 461.8L250 375.4M-7.80821e-06 519.4L250 404.2M-7.80821e-06 577L-7.80821e-06 1L250 145L250 433L-7.80821e-06 577Z" stroke="url(#paint0_linear)"></path> </g> <g filter="url(#filter1_d)"> <path d="M1390 548.056V29.8M1365 533.656V44.2M1340 519.544V58.888M1290 490.744V87.4M1265 476.344V101.8M1240 461.8V116.488M1215 447.4V130.6M1315 504.712V73M1415 562.456V15.4M1440 289H1190M1440 231.4L1190 260.2M1440 173.8L1190 231.4M1440 116.2L1190 202.6M1440 58.6L1190 173.8M1440 346.6L1190 317.8M1440 404.2L1190 346.6M1440 461.8L1190 375.4M1440 519.4L1190 404.2M1440 577V1L1190 145V433L1440 577Z" stroke="url(#paint1_linear)"></path> </g> <g filter="url(#filter2_d)"> <path d="M720 433V577M720 433H626M720 433H814M720 577H575.75M720 577H864M143 577H0L25 562.6M143 577L344 433M143 577H288M344 433H250L225 447.4M344 433H438M288 577L438 433M288 577H431.5M438 433H532M431.5 577L532 433M431.5 577H575.75M532 433H626M575.75 577L626 433M814 433L864 577M814 433H908M864 577H1008M908 433L1008 577M908 433H1002M1008 577H1152M1002 433L1152 577M1002 433H1096M1152 577H1297.5M1096 433H1190L1215 447.4M1096 433L1297.5 577M1297.5 577H1440L1415 562.6M25 562.6H1415M25 562.6L100 519.4M1415 562.6L1340 519.4M50.25 548H1390M75 533.5H1364.48M100 519.4H1340M100 519.4L125 505M1340 519.4L1315 505M125 505H1315M125 505L150 490.6M1315 505L1265 476.2M150 490.6L1290 490.5M150 490.6L175 476.2M175 476.2H1265M175 476.2L200 461.8M1265 476.2L1240 461.8M200 461.8H1240M200 461.8L225 447.4M1240 461.8L1215 447.4M225 447.4H1215" stroke="url(#paint2_linear)"></path> </g> <path d="M50 548.056L50 29.8M75 533.656L75 44.2M100 519.544L100 58.888M150 490.744L150 87.4M175 476.344L175 101.8M200 461.8L200 116.488M225 447.4L225 130.6M125 504.712L125 73M25 562.456L25 15.4M-7.80821e-06 289H250M-7.80821e-06 231.4L250 260.2M-7.80821e-06 173.8L250 231.4M-7.80821e-06 116.2L250 202.6M-7.80821e-06 58.6L250 173.8M-7.80821e-06 346.6L250 317.8M-7.80821e-06 404.2L250 346.6M-7.80821e-06 461.8L250 375.4M-7.80821e-06 519.4L250 404.2M-7.80821e-06 577L-7.80821e-06 1L250 145L250 433L-7.80821e-06 577Z" stroke="url(#paint3_linear)"></path> <path d="M1390 548.056V29.8M1365 533.656V44.2M1340 519.544V58.888M1290 490.744V87.4M1265 476.344V101.8M1240 461.8V116.488M1215 447.4V130.6M1315 504.712V73M1415 562.456V15.4M1440 289H1190M1440 231.4L1190 260.2M1440 173.8L1190 231.4M1440 116.2L1190 202.6M1440 58.6L1190 173.8M1440 346.6L1190 317.8M1440 404.2L1190 346.6M1440 461.8L1190 375.4M1440 519.4L1190 404.2M1440 577V1L1190 145V433L1440 577Z" stroke="url(#paint4_linear)"></path> <path d="M720 433V577M720 433H626M720 433H814M720 577H575.75M720 577H864M143 577H0L25 562.6M143 577L344 433M143 577H288M344 433H250L225 447.4M344 433H438M288 577L438 433M288 577H431.5M438 433H532M431.5 577L532 433M431.5 577H575.75M532 433H626M575.75 577L626 433M814 433L864 577M814 433H908M864 577H1008M908 433L1008 577M908 433H1002M1008 577H1152M1002 433L1152 577M1002 433H1096M1152 577H1297.5M1096 433H1190L1215 447.4M1096 433L1297.5 577M1297.5 577H1440L1415 562.6M25 562.6H1415M25 562.6L100 519.4M1415 562.6L1340 519.4M50.25 548H1390M75 533.5H1364.48M100 519.4H1340M100 519.4L125 505M1340 519.4L1315 505M125 505H1315M125 505L150 490.6M1315 505L1265 476.2M150 490.6L1290 490.5M150 490.6L175 476.2M175 476.2H1265M175 476.2L200 461.8M1265 476.2L1240 461.8M200 461.8H1240M200 461.8L225 447.4M1240 461.8L1215 447.4M225 447.4H1215" stroke="url(#paint5_linear)"></path> <defs> <filter id="filter0_d" x="-4.5" y="0.134766" width="259" height="585.73" filterUnits="userSpaceOnUse" color-interpolation-filters="sRGB"> <feFlood flood-opacity="0" result="BackgroundImageFix"></feFlood> <feColorMatrix in="SourceAlpha" type="matrix" values="0 0 0 0 0 0 0 0 0 0 0 0 0 0 0 0 0 0 127 0"></feColorMatrix> <feOffset dy="4"></feOffset> <feGaussianBlur stdDeviation="2"></feGaussianBlur> <feColorMatrix type="matrix" values="0 0 0 0 0 0 0 0 0 0 0 0 0 0 0 0 0 0 0.25 0"></feColorMatrix> <feBlend mode="normal" in2="BackgroundImageFix" result="effect1_dropShadow"></feBlend> <feBlend mode="normal" in="SourceGraphic" in2="effect1_dropShadow" result="shape"></feBlend> </filter> <filter id="filter1_d" x="1185.5" y="0.134766" width="259" height="585.73" filterUnits="userSpaceOnUse" color-interpolation-filters="sRGB"> <feFlood flood-opacity="0" result="BackgroundImageFix"></feFlood> <feColorMatrix in="SourceAlpha" type="matrix" values="0 0 0 0 0 0 0 0 0 0 0 0 0 0 0 0 0 0 127 0"></feColorMatrix> <feOffset dy="4"></feOffset> <feGaussianBlur stdDeviation="2"></feGaussianBlur> <feColorMatrix type="matrix" values="0 0 0 0 0 0 0 0 0 0 0 0 0 0 0 0 0 0 0.25 0"></feColorMatrix> <feBlend mode="normal" in2="BackgroundImageFix" result="effect1_dropShadow"></feBlend> <feBlend mode="normal" in="SourceGraphic" in2="effect1_dropShadow" result="shape"></feBlend> </filter> <filter id="filter2_d" x="-5.86987" y="432.5" width="1451.74" height="153" filterUnits="userSpaceOnUse" color-interpolation-filters="sRGB"> <feFlood flood-opacity="0" result="BackgroundImageFix"></feFlood> <feColorMatrix in="SourceAlpha" type="matrix" values="0 0 0 0 0 0 0 0 0 0 0 0 0 0 0 0 0 0 127 0"></feColorMatrix> <feOffset dy="4"></feOffset> <feGaussianBlur stdDeviation="2"></feGaussianBlur> <feColorMatrix type="matrix" values="0 0 0 0 0 0 0 0 0 0 0 0 0 0 0 0 0 0 0.25 0"></feColorMatrix> <feBlend mode="normal" in2="BackgroundImageFix" result="effect1_dropShadow"></feBlend> <feBlend mode="normal" in="SourceGraphic" in2="effect1_dropShadow" result="shape"></feBlend> </filter> <linearGradient id="paint0_linear" x1="239.5" y1="469.864" x2="-71.8934" y2="375.02" gradientUnits="userSpaceOnUse"> <stop stop-color="#FCECB2"></stop> <stop offset="0.260417" stop-color="#FF8B89"></stop> <stop offset="0.520833" stop-color="#FC8ADC"></stop> <stop offset="0.755208" stop-color="#7954FF"></stop> <stop offset="1" stop-color="#70BCFF"></stop> </linearGradient> <linearGradient id="paint1_linear" x1="1200.5" y1="469.864" x2="1511.89" y2="375.02" gradientUnits="userSpaceOnUse"> <stop stop-color="#FCECB2"></stop> <stop offset="0.260417" stop-color="#FF8B89"></stop> <stop offset="0.520833" stop-color="#FC8ADC"></stop> <stop offset="0.755208" stop-color="#7954FF"></stop> <stop offset="1" stop-color="#70BCFF"></stop> </linearGradient> <linearGradient id="paint2_linear" x1="267.84" y1="439.048" x2="281.527" y2="634.089" gradientUnits="userSpaceOnUse"> <stop stop-color="#FCECB2"></stop> <stop offset="0.260417" stop-color="#FF8B89"></stop> <stop offset="0.520833" stop-color="#FC8ADC"></stop> <stop offset="0.755208" stop-color="#7954FF"></stop> <stop offset="1" stop-color="#70BCFF"></stop> </linearGradient> <linearGradient id="paint3_linear" x1="239.5" y1="469.864" x2="-71.8934" y2="375.02" gradientUnits="userSpaceOnUse"> <stop stop-color="#FCECB2"></stop> <stop offset="0.260417" stop-color="#FF8B89"></stop> <stop offset="0.520833" stop-color="#FC8ADC"></stop> <stop offset="0.755208" stop-color="#7954FF"></stop> <stop offset="1" stop-color="#70BCFF"></stop> </linearGradient> <linearGradient id="paint4_linear" x1="1200.5" y1="469.864" x2="1511.89" y2="375.02" gradientUnits="userSpaceOnUse"> <stop stop-color="#FCECB2"></stop> <stop offset="0.260417" stop-color="#FF8B89"></stop> <stop offset="0.520833" stop-color="#FC8ADC"></stop> <stop offset="0.755208" stop-color="#7954FF"></stop> <stop offset="1" stop-color="#70BCFF"></stop> </linearGradient> <linearGradient id="paint5_linear" x1="267.84" y1="439.048" x2="281.527" y2="634.089" gradientUnits="userSpaceOnUse"> <stop stop-color="#FCECB2"></stop> <stop offset="0.260417" stop-color="#FF8B89"></stop> <stop offset="0.520833" stop-color="#FC8ADC"></stop> <stop offset="0.755208" stop-color="#7954FF"></stop> <stop offset="1" stop-color="#70BCFF"></stop> </linearGradient> </defs> </svg> 